<svg width="800" height="200" viewBox="0 0 800 200" xmlns="http://www.w3.org/2000/svg">
  <defs>
    <filter id="blur" x="-50%" y="-50%" width="200%" height="200%">
      <feGaussianBlur in="SourceGraphic" stdDeviation="50" />
    </filter>
    <linearGradient id="overlayGrad" x1="0%" y1="0%" x2="100%" y2="0%">
      <stop offset="0%" style="stop-color:#ffffff;stop-opacity:0" />
      <stop offset="100%" style="stop-color:#ffffff;stop-opacity:0.3" />
    </linearGradient>
  </defs>

  <!-- Background Base -->
  <rect width="800" height="200" rx="8" fill="#f8fafc" />

  <!-- Soft Ambient Glows -->
  <circle cx="0" cy="200" r="250" fill="#667eea" opacity="0.12" filter="url(#blur)" />
  <circle cx="800" cy="0" r="300" fill="#d8b4fe" opacity="0.15" filter="url(#blur)" />

  <rect width="800" height="200" rx="8" fill="url(#overlayGrad)" style="mix-blend-mode: overlay;" />

  <!-- Content Group -->
  <g transform="translate(160, 68)">
    <!-- Logo Scaled (Black) -->
    <g transform="scale(1.3)" fill="#000000">
      <path
        d="M47.59,0 C37.12,0 28.15,6.52 24.51,15.71 L0,15.71 L12.25,23.84 L65.3,23.84 C65.32,24.17 65.33,24.5 65.33,24.83 C65.33,25.46 65.3,26.08 65.23,26.69 L22.84,26.69 C23.05,29.56 23.76,32.3 24.87,34.82 C25.31,35.81 25.8,36.76 26.35,37.68 C30.71,44.85 38.6,49.66 47.59,49.66 C56.58,49.66 64.47,44.86 68.83,37.68 L59.81,37.68 C56.63,40.71 52.33,42.57 47.6,42.57 C42.87,42.57 38.57,40.71 35.39,37.68 C34.48,36.82 33.66,35.86 32.95,34.82 L70.32,34.82 C71.67,31.76 72.43,28.38 72.43,24.83 C72.42,11.14 61.28,0 47.59,0 Z M32.38,15.71 C35.49,10.55 41.14,7.09 47.59,7.09 C54.04,7.09 59.69,10.55 62.8,15.71 L32.38,15.71 Z" />
    </g>

    <!-- Text Group -->
    <text x="110" y="45" font-family="'Avenir Next', 'Avenir', 'Century Gothic', 'Helvetica Neue', sans-serif"
      font-weight="700" font-style="italic" font-size="52" fill="#0f172a" letter-spacing="4">EFFUSE</text>

    <!-- Sub Text: "js" positioned closer up (y=50) -->
    <text x="315" y="50" font-family="'Avenir Next', 'Avenir', sans-serif" font-weight="600" font-style="italic"
      font-size="28" fill="#64748b" letter-spacing="1">js</text>
  </g>

  <!-- Badge: "FRAMEWORK" -->
  <g transform="translate(640, 155)">
    <path d="M0 45 L160 45 L160 0 L40 0 Q0 0 0 45 Z" fill="#667eea" />
    <text x="80" y="29" font-family="'Avenir Next', 'Avenir', sans-serif" font-weight="bold" font-size="13"
      fill="#ffffff" letter-spacing="2" text-anchor="middle">FRAMEWORK</text>
  </g>
</svg>